<?xml version="1.0" encoding="UTF-8"?>
<!--Generator: Apple Native CoreSVG 123-->
<!DOCTYPE svg
PUBLIC "-//W3C//DTD SVG 1.1//EN"
       "http://www.w3.org/Graphics/SVG/1.1/DTD/svg11.dtd">
<svg version="1.1" xmlns="http://www.w3.org/2000/svg" xmlns:xlink="http://www.w3.org/1999/xlink" width="3300" height="2200">
 <!--glyph: "uni10043E.medium", point size: 100.000000, font version: "Version 15.0d7e11", template writer version: "5"-->
 <g id="Notes">
  <rect height="2200" id="artboard" style="fill:white;opacity:1" width="3300" x="0" y="0"/>
  <line id="" style="fill:none;stroke:black;opacity:1;stroke-width:0.5;" x1="263" x2="3036" y1="292" y2="292"/>
  <text style="stroke:none;fill:black;font-family:-apple-system,&quot;SF Pro Display&quot;,&quot;SF Pro Text&quot;,Helvetica,sans-serif;font-weight:bold;" transform="matrix(1 0 0 1 263 322)">Weight/Scale Variations</text>
  <text style="stroke:none;fill:black;font-family:-apple-system,&quot;SF Pro Display&quot;,&quot;SF Pro Text&quot;,Helvetica,sans-serif;text-anchor:middle;" transform="matrix(1 0 0 1 559.711 322)">Ultralight</text>
  <text style="stroke:none;fill:black;font-family:-apple-system,&quot;SF Pro Display&quot;,&quot;SF Pro Text&quot;,Helvetica,sans-serif;text-anchor:middle;" transform="matrix(1 0 0 1 856.422 322)">Thin</text>
  <text style="stroke:none;fill:black;font-family:-apple-system,&quot;SF Pro Display&quot;,&quot;SF Pro Text&quot;,Helvetica,sans-serif;text-anchor:middle;" transform="matrix(1 0 0 1 1153.13 322)">Light</text>
  <text style="stroke:none;fill:black;font-family:-apple-system,&quot;SF Pro Display&quot;,&quot;SF Pro Text&quot;,Helvetica,sans-serif;text-anchor:middle;" transform="matrix(1 0 0 1 1449.84 322)">Regular</text>
  <text style="stroke:none;fill:black;font-family:-apple-system,&quot;SF Pro Display&quot;,&quot;SF Pro Text&quot;,Helvetica,sans-serif;text-anchor:middle;" transform="matrix(1 0 0 1 1746.56 322)">Medium</text>
  <text style="stroke:none;fill:black;font-family:-apple-system,&quot;SF Pro Display&quot;,&quot;SF Pro Text&quot;,Helvetica,sans-serif;text-anchor:middle;" transform="matrix(1 0 0 1 2043.27 322)">Semibold</text>
  <text style="stroke:none;fill:black;font-family:-apple-system,&quot;SF Pro Display&quot;,&quot;SF Pro Text&quot;,Helvetica,sans-serif;text-anchor:middle;" transform="matrix(1 0 0 1 2339.98 322)">Bold</text>
  <text style="stroke:none;fill:black;font-family:-apple-system,&quot;SF Pro Display&quot;,&quot;SF Pro Text&quot;,Helvetica,sans-serif;text-anchor:middle;" transform="matrix(1 0 0 1 2636.69 322)">Heavy</text>
  <text style="stroke:none;fill:black;font-family:-apple-system,&quot;SF Pro Display&quot;,&quot;SF Pro Text&quot;,Helvetica,sans-serif;text-anchor:middle;" transform="matrix(1 0 0 1 2933.4 322)">Black</text>
  <line id="" style="fill:none;stroke:black;opacity:1;stroke-width:0.5;" x1="263" x2="3036" y1="1903" y2="1903"/>
  <g id="" transform="matrix(1 0 0 1 263 1933)">
   <path d="M 9.24805 0.830078 C 13.5547 0.830078 17.1387 -2.74414 17.1387 -7.05078 C 17.1387 -11.3574 13.5449 -14.9316 9.23828 -14.9316 C 4.94141 -14.9316 1.36719 -11.3574 1.36719 -7.05078 C 1.36719 -2.74414 4.95117 0.830078 9.24805 0.830078 Z M 9.24805 -0.654297 C 5.70312 -0.654297 2.87109 -3.49609 2.87109 -7.05078 C 2.87109 -10.6055 5.69336 -13.4473 9.23828 -13.4473 C 12.793 -13.4473 15.6348 -10.6055 15.6445 -7.05078 C 15.6543 -3.49609 12.8027 -0.654297 9.24805 -0.654297 Z M 9.22852 -3.42773 C 9.69727 -3.42773 9.9707 -3.74023 9.9707 -4.25781 L 9.9707 -6.31836 L 12.1973 -6.31836 C 12.6953 -6.31836 13.0371 -6.57227 13.0371 -7.04102 C 13.0371 -7.51953 12.7148 -7.7832 12.1973 -7.7832 L 9.9707 -7.7832 L 9.9707 -10.0098 C 9.9707 -10.5273 9.69727 -10.8496 9.22852 -10.8496 C 8.75977 -10.8496 8.50586 -10.5078 8.50586 -10.0098 L 8.50586 -7.7832 L 6.29883 -7.7832 C 5.78125 -7.7832 5.44922 -7.51953 5.44922 -7.04102 C 5.44922 -6.57227 5.80078 -6.31836 6.29883 -6.31836 L 8.50586 -6.31836 L 8.50586 -4.25781 C 8.50586 -3.75977 8.75977 -3.42773 9.22852 -3.42773 Z"/>
  </g>
  <g id="" transform="matrix(1 0 0 1 281.506 1933)">
   <path d="M 11.709 2.91016 C 17.1582 2.91016 21.6699 -1.60156 21.6699 -7.05078 C 21.6699 -12.4902 17.1484 -17.0117 11.6992 -17.0117 C 6.25977 -17.0117 1.74805 -12.4902 1.74805 -7.05078 C 1.74805 -1.60156 6.26953 2.91016 11.709 2.91016 Z M 11.709 1.25 C 7.09961 1.25 3.41797 -2.44141 3.41797 -7.05078 C 3.41797 -11.6504 7.08984 -15.3516 11.6992 -15.3516 C 16.3086 -15.3516 20 -11.6504 20.0098 -7.05078 C 20.0195 -2.44141 16.3184 1.25 11.709 1.25 Z M 11.6895 -2.41211 C 12.207 -2.41211 12.5195 -2.77344 12.5195 -3.33984 L 12.5195 -6.23047 L 15.5762 -6.23047 C 16.123 -6.23047 16.5039 -6.51367 16.5039 -7.03125 C 16.5039 -7.55859 16.1426 -7.86133 15.5762 -7.86133 L 12.5195 -7.86133 L 12.5195 -10.9277 C 12.5195 -11.5039 12.207 -11.8555 11.6895 -11.8555 C 11.1719 -11.8555 10.8789 -11.4844 10.8789 -10.9277 L 10.8789 -7.86133 L 7.83203 -7.86133 C 7.26562 -7.86133 6.89453 -7.55859 6.89453 -7.03125 C 6.89453 -6.51367 7.28516 -6.23047 7.83203 -6.23047 L 10.8789 -6.23047 L 10.8789 -3.33984 C 10.8789 -2.79297 11.1719 -2.41211 11.6895 -2.41211 Z"/>
  </g>
  <g id="" transform="matrix(1 0 0 1 304.924 1933)">
   <path d="M 14.9707 5.67383 C 21.9336 5.67383 27.6953 -0.078125 27.6953 -7.04102 C 27.6953 -14.0039 21.9238 -19.7559 14.9609 -19.7559 C 8.00781 -19.7559 2.25586 -14.0039 2.25586 -7.04102 C 2.25586 -0.078125 8.01758 5.67383 14.9707 5.67383 Z M 14.9707 3.85742 C 8.93555 3.85742 4.08203 -1.00586 4.08203 -7.04102 C 4.08203 -13.0762 8.92578 -17.9395 14.9609 -17.9395 C 21.0059 -17.9395 25.8594 -13.0762 25.8691 -7.04102 C 25.8789 -1.00586 21.0156 3.85742 14.9707 3.85742 Z M 14.9512 -1.06445 C 15.5176 -1.06445 15.8691 -1.45508 15.8691 -2.06055 L 15.8691 -6.13281 L 20.1074 -6.13281 C 20.6934 -6.13281 21.1133 -6.46484 21.1133 -7.02148 C 21.1133 -7.59766 20.7227 -7.93945 20.1074 -7.93945 L 15.8691 -7.93945 L 15.8691 -12.1875 C 15.8691 -12.8027 15.5176 -13.1934 14.9512 -13.1934 C 14.3848 -13.1934 14.0625 -12.7832 14.0625 -12.1875 L 14.0625 -7.93945 L 9.83398 -7.93945 C 9.21875 -7.93945 8.80859 -7.59766 8.80859 -7.02148 C 8.80859 -6.46484 9.23828 -6.13281 9.83398 -6.13281 L 14.0625 -6.13281 L 14.0625 -2.06055 C 14.0625 -1.47461 14.3848 -1.06445 14.9512 -1.06445 Z"/>
  </g>
  <text style="stroke:none;fill:black;font-family:-apple-system,&quot;SF Pro Display&quot;,&quot;SF Pro Text&quot;,Helvetica,sans-serif;font-weight:bold;" transform="matrix(1 0 0 1 263 1953)">Design Variations</text>
  <text style="stroke:none;fill:black;font-family:-apple-system,&quot;SF Pro Display&quot;,&quot;SF Pro Text&quot;,Helvetica,sans-serif;" transform="matrix(1 0 0 1 263 1971)">Symbols are supported in up to nine weights and three scales.</text>
  <text style="stroke:none;fill:black;font-family:-apple-system,&quot;SF Pro Display&quot;,&quot;SF Pro Text&quot;,Helvetica,sans-serif;" transform="matrix(1 0 0 1 263 1989)">For optimal layout with text and other symbols, vertically align</text>
  <text style="stroke:none;fill:black;font-family:-apple-system,&quot;SF Pro Display&quot;,&quot;SF Pro Text&quot;,Helvetica,sans-serif;" transform="matrix(1 0 0 1 263 2007)">symbols with the adjacent text.</text>
  <rect height="14" id="" style="fill:#00AEEF;stroke:none;opacity:0.4;" width="3" x="776" y="1919"/>
  <g id="" transform="matrix(1 0 0 1 779 1933)">
   <path d="M 10.5273 0 L 12.373 0 L 7.17773 -14.0918 L 5.43945 -14.0918 L 0.244141 0 L 2.08984 0 L 3.50586 -4.0332 L 9.11133 -4.0332 Z M 6.2793 -11.9531 L 6.33789 -11.9531 L 8.59375 -5.52734 L 4.02344 -5.52734 Z"/>
  </g>
  <rect height="14" id="" style="fill:#00AEEF;stroke:none;opacity:0.4;" width="3" x="791.617" y="1919"/>
  <text style="stroke:none;fill:black;font-family:-apple-system,&quot;SF Pro Display&quot;,&quot;SF Pro Text&quot;,Helvetica,sans-serif;font-weight:bold;" transform="matrix(1 0 0 1 776 1953)">Margins</text>
  <text style="stroke:none;fill:black;font-family:-apple-system,&quot;SF Pro Display&quot;,&quot;SF Pro Text&quot;,Helvetica,sans-serif;" transform="matrix(1 0 0 1 776 1971)">Leading and trailing margins on the left and right side of each symbol</text>
  <text style="stroke:none;fill:black;font-family:-apple-system,&quot;SF Pro Display&quot;,&quot;SF Pro Text&quot;,Helvetica,sans-serif;" transform="matrix(1 0 0 1 776 1989)">can be adjusted by modifying the width of the blue rectangles.</text>
  <text style="stroke:none;fill:black;font-family:-apple-system,&quot;SF Pro Display&quot;,&quot;SF Pro Text&quot;,Helvetica,sans-serif;" transform="matrix(1 0 0 1 776 2007)">Modifications are automatically applied proportionally to all</text>
  <text style="stroke:none;fill:black;font-family:-apple-system,&quot;SF Pro Display&quot;,&quot;SF Pro Text&quot;,Helvetica,sans-serif;" transform="matrix(1 0 0 1 776 2025)">scales and weights.</text>
  <g id="" transform="matrix(1 0 0 1 1289 1933)">
   <path d="M 2.83203 3.11523 L 4.375 4.6582 C 5.22461 5.48828 6.19141 5.41992 7.06055 4.46289 L 17.2754 -6.66016 C 17.7051 -6.36719 18.0957 -6.37695 18.5645 -6.47461 L 19.6094 -6.68945 L 20.3027 -5.99609 L 20.2539 -5.47852 C 20.1855 -4.95117 20.3516 -4.53125 20.8496 -4.0332 L 21.6602 -3.22266 C 22.168 -2.71484 22.8223 -2.68555 23.3008 -3.16406 L 26.5527 -6.41602 C 27.0312 -6.89453 27.0117 -7.54883 26.5039 -8.05664 L 25.6836 -8.87695 C 25.1855 -9.375 24.7754 -9.55078 24.2383 -9.47266 L 23.7109 -9.41406 L 23.0566 -10.0781 L 23.3398 -11.2207 C 23.4863 -11.7871 23.3398 -12.2559 22.7148 -12.8613 L 20.3027 -15.2539 C 16.7578 -18.7793 12.2266 -18.6719 9.11133 -15.5371 C 8.69141 -15.1074 8.64258 -14.5215 8.91602 -14.0918 C 9.15039 -13.7207 9.62891 -13.4961 10.2734 -13.6621 C 11.7871 -14.043 13.3008 -13.9258 14.7852 -12.9199 L 14.1602 -11.3379 C 13.9258 -10.752 13.9453 -10.2734 14.1797 -9.83398 L 3.01758 0.439453 C 2.08008 1.30859 1.97266 2.25586 2.83203 3.11523 Z M 10.6738 -15.1465 C 13.3398 -17.1387 16.6504 -16.8262 19.0527 -14.4141 L 21.6797 -11.8066 C 21.9141 -11.5723 21.9434 -11.3867 21.8848 -11.0938 L 21.5039 -9.53125 L 23.0762 -7.95898 L 24.043 -8.04688 C 24.3262 -8.07617 24.4141 -8.05664 24.6387 -7.83203 L 25.2637 -7.20703 L 22.5098 -4.46289 L 21.8848 -5.07812 C 21.6602 -5.30273 21.6406 -5.40039 21.6699 -5.68359 L 21.7578 -6.64062 L 20.1953 -8.20312 L 18.5742 -7.89062 C 18.291 -7.83203 18.1445 -7.83203 17.9102 -8.07617 L 15.7324 -10.2539 C 15.5078 -10.4883 15.4785 -10.625 15.6055 -10.9473 L 16.5527 -13.2227 C 14.9512 -14.7559 12.8418 -15.6055 10.8008 -14.9512 C 10.7129 -14.9219 10.6445 -14.9414 10.6152 -14.9805 C 10.5859 -15.0293 10.5859 -15.0781 10.6738 -15.1465 Z M 4.10156 2.41211 C 3.61328 1.91406 3.78906 1.61133 4.12109 1.30859 L 15.0781 -8.80859 L 16.3086 -7.57812 L 6.15234 3.34961 C 5.84961 3.68164 5.46875 3.7793 5.06836 3.37891 Z"/>
  </g>
  <text style="stroke:none;fill:black;font-family:-apple-system,&quot;SF Pro Display&quot;,&quot;SF Pro Text&quot;,Helvetica,sans-serif;font-weight:bold;" transform="matrix(1 0 0 1 1289 1953)">Exporting</text>
  <text style="stroke:none;fill:black;font-family:-apple-system,&quot;SF Pro Display&quot;,&quot;SF Pro Text&quot;,Helvetica,sans-serif;" transform="matrix(1 0 0 1 1289 1971)">Symbols should be outlined when exporting to ensure the</text>
  <text style="stroke:none;fill:black;font-family:-apple-system,&quot;SF Pro Display&quot;,&quot;SF Pro Text&quot;,Helvetica,sans-serif;" transform="matrix(1 0 0 1 1289 1989)">design is preserved when submitting to Xcode.</text>
  <text id="template-version" style="stroke:none;fill:black;font-family:-apple-system,&quot;SF Pro Display&quot;,&quot;SF Pro Text&quot;,Helvetica,sans-serif;text-anchor:end;" transform="matrix(1 0 0 1 3036 1933)">Template v.1.0</text>
  <text style="stroke:none;fill:black;font-family:-apple-system,&quot;SF Pro Display&quot;,&quot;SF Pro Text&quot;,Helvetica,sans-serif;text-anchor:end;" transform="matrix(1 0 0 1 3036 1951)">Generated from chart.bar</text>
  <text style="stroke:none;fill:black;font-family:-apple-system,&quot;SF Pro Display&quot;,&quot;SF Pro Text&quot;,Helvetica,sans-serif;text-anchor:end;" transform="matrix(1 0 0 1 3036 1969)">Typeset at 100 points</text>
  <text style="stroke:none;fill:black;font-family:-apple-system,&quot;SF Pro Display&quot;,&quot;SF Pro Text&quot;,Helvetica,sans-serif;" transform="matrix(1 0 0 1 263 726)">Small</text>
  <text style="stroke:none;fill:black;font-family:-apple-system,&quot;SF Pro Display&quot;,&quot;SF Pro Text&quot;,Helvetica,sans-serif;" transform="matrix(1 0 0 1 263 1156)">Medium</text>
  <text style="stroke:none;fill:black;font-family:-apple-system,&quot;SF Pro Display&quot;,&quot;SF Pro Text&quot;,Helvetica,sans-serif;" transform="matrix(1 0 0 1 263 1586)">Large</text>
 </g>
 <g id="Guides">
  <g id="H-reference" style="fill:#27AAE1;stroke:none;" transform="matrix(1 0 0 1 339 696)">
   <path d="M 54.9316 0 L 57.666 0 L 30.5664 -70.459 L 28.0762 -70.459 L 0.976562 0 L 3.66211 0 L 12.9395 -24.4629 L 45.7031 -24.4629 Z M 29.1992 -67.0898 L 29.4434 -67.0898 L 44.8242 -26.709 L 13.8184 -26.709 Z"/>
  </g>
  <line id="Baseline-S" style="fill:none;stroke:#27AAE1;opacity:1;stroke-width:0.577;" x1="263" x2="3036" y1="696" y2="696"/>
  <line id="Capline-S" style="fill:none;stroke:#27AAE1;opacity:1;stroke-width:0.577;" x1="263" x2="3036" y1="625.541" y2="625.541"/>
  <g id="H-reference" style="fill:#27AAE1;stroke:none;" transform="matrix(1 0 0 1 339 1126)">
   <path d="M 54.9316 0 L 57.666 0 L 30.5664 -70.459 L 28.0762 -70.459 L 0.976562 0 L 3.66211 0 L 12.9395 -24.4629 L 45.7031 -24.4629 Z M 29.1992 -67.0898 L 29.4434 -67.0898 L 44.8242 -26.709 L 13.8184 -26.709 Z"/>
  </g>
  <line id="Baseline-M" style="fill:none;stroke:#27AAE1;opacity:1;stroke-width:0.577;" x1="263" x2="3036" y1="1126" y2="1126"/>
  <line id="Capline-M" style="fill:none;stroke:#27AAE1;opacity:1;stroke-width:0.577;" x1="263" x2="3036" y1="1055.54" y2="1055.54"/>
  <g id="H-reference" style="fill:#27AAE1;stroke:none;" transform="matrix(1 0 0 1 339 1556)">
   <path d="M 54.9316 0 L 57.666 0 L 30.5664 -70.459 L 28.0762 -70.459 L 0.976562 0 L 3.66211 0 L 12.9395 -24.4629 L 45.7031 -24.4629 Z M 29.1992 -67.0898 L 29.4434 -67.0898 L 44.8242 -26.709 L 13.8184 -26.709 Z"/>
  </g>
  <line id="Baseline-L" style="fill:none;stroke:#27AAE1;opacity:1;stroke-width:0.577;" x1="263" x2="3036" y1="1556" y2="1556"/>
  <line id="Capline-L" style="fill:none;stroke:#27AAE1;opacity:1;stroke-width:0.577;" x1="263" x2="3036" y1="1485.54" y2="1485.54"/>
  <rect height="119.336" id="left-margin" style="fill:#00AEEF;stroke:none;opacity:0.4;" width="12.4512" x="1375.36" y="1030.79"/>
  <rect height="119.336" id="right-margin" style="fill:#00AEEF;stroke:none;opacity:0.4;" width="12.4512" x="1511.88" y="1030.79"/>
 </g>
 <g id="Symbols">
  <g id="Black-L" transform="matrix(1 0 0 1 2826.1 1556)">
   <path d="M 164.99 26.6113 L 176.709 26.6113 C 190.088 26.6113 198.535 18.5547 198.535 5.76172 L 198.535 -75.7812 C 198.535 -88.5254 190.088 -96.6309 176.709 -96.6309 L 164.99 -96.6309 C 151.611 -96.6309 143.164 -88.5254 143.164 -75.7324 L 143.164 5.76172 C 143.164 18.5547 151.611 26.6113 164.99 26.6113 Z M 168.066 9.32617 C 164.16 9.32617 162.061 7.27539 162.061 3.4668 L 162.061 -73.4375 C 162.061 -77.2461 164.16 -79.3457 168.066 -79.3457 L 173.633 -79.3457 C 177.539 -79.3457 179.639 -77.2461 179.639 -73.4375 L 179.639 3.4668 C 179.639 7.27539 177.539 9.32617 173.535 9.32617 Z M 101.416 26.6113 L 113.135 26.6113 C 126.514 26.6113 135.01 18.5547 135.01 5.76172 L 135.01 -57.4707 C 135.01 -70.2148 126.514 -78.2715 113.135 -78.2715 L 101.416 -78.2715 C 88.0371 -78.2715 79.5898 -70.2148 79.5898 -57.373 L 79.5898 5.76172 C 79.5898 18.5547 88.0371 26.6113 101.416 26.6113 Z M 104.541 9.32617 C 100.635 9.32617 98.5352 7.27539 98.5352 3.4668 L 98.5352 -55.127 C 98.5352 -58.9355 100.635 -61.0352 104.541 -61.0352 L 110.059 -61.0352 C 113.965 -61.0352 116.113 -58.9355 116.113 -55.127 L 116.113 3.4668 C 116.113 7.27539 113.965 9.32617 110.01 9.32617 Z M 37.8906 26.6113 L 49.6094 26.6113 C 62.9883 26.6113 71.4355 18.5547 71.4355 5.76172 L 71.4355 -38.7695 C 71.4355 -51.5625 62.9883 -59.6191 49.6094 -59.6191 L 37.8906 -59.6191 C 24.5117 -59.6191 16.0645 -51.5625 16.0645 -38.7207 L 16.0645 5.76172 C 16.0645 18.5547 24.5117 26.6113 37.8906 26.6113 Z M 41.0156 9.32617 C 37.1094 9.32617 34.9609 7.27539 34.9609 3.4668 L 34.9609 -36.4258 C 34.9609 -40.2344 37.1094 -42.334 41.0156 -42.334 L 46.5332 -42.334 C 50.4395 -42.334 52.5391 -40.2344 52.5391 -36.4258 L 52.5391 3.4668 C 52.5391 7.27539 50.4395 9.32617 46.4844 9.32617 Z"/>
  </g>
  <g id="Heavy-L" transform="matrix(1 0 0 1 2532.29 1556)">
   <path d="M 159.668 25.9277 L 172.754 25.9277 C 185.107 25.9277 192.725 18.75 192.725 6.88477 L 192.725 -76.8066 C 192.725 -88.6719 185.107 -95.8984 172.754 -95.8984 L 159.668 -95.8984 C 147.266 -95.8984 139.746 -88.6719 139.746 -76.7578 L 139.746 6.88477 C 139.746 18.75 147.266 25.9277 159.668 25.9277 Z M 162.354 10.8398 C 158.252 10.8398 156.201 8.78906 156.201 4.78516 L 156.201 -74.707 C 156.201 -78.7598 158.252 -80.7617 162.354 -80.7617 L 170.068 -80.7617 C 174.219 -80.7617 176.27 -78.7598 176.27 -74.707 L 176.27 4.78516 C 176.27 8.78906 174.219 10.8398 170.02 10.8398 Z M 97.8516 25.9277 L 110.938 25.9277 C 123.291 25.9277 130.859 18.75 130.859 6.88477 L 130.859 -58.4961 C 130.859 -70.3613 123.291 -77.5391 110.938 -77.5391 L 97.8516 -77.5391 C 85.4492 -77.5391 77.8809 -70.3613 77.8809 -58.4473 L 77.8809 6.88477 C 77.8809 18.75 85.4492 25.9277 97.8516 25.9277 Z M 100.537 10.8398 C 96.3867 10.8398 94.3848 8.78906 94.3848 4.78516 L 94.3848 -56.3965 C 94.3848 -60.4004 96.3867 -62.4512 100.537 -62.4512 L 108.252 -62.4512 C 112.354 -62.4512 114.404 -60.4004 114.404 -56.3965 L 114.404 4.78516 C 114.404 8.78906 112.354 10.8398 108.203 10.8398 Z M 35.9863 25.9277 L 49.0723 25.9277 C 61.4746 25.9277 69.043 18.75 69.043 6.88477 L 69.043 -39.9414 C 69.043 -51.8066 61.4746 -58.9844 49.0723 -58.9844 L 35.9863 -58.9844 C 23.6328 -58.9844 16.0645 -51.8066 16.0645 -39.8926 L 16.0645 6.88477 C 16.0645 18.75 23.6328 25.9277 35.9863 25.9277 Z M 38.6719 10.8398 C 34.5703 10.8398 32.5195 8.78906 32.5195 4.78516 L 32.5195 -37.8418 C 32.5195 -41.8457 34.5703 -43.8965 38.6719 -43.8965 L 46.4355 -43.8965 C 50.5371 -43.8965 52.5879 -41.8457 52.5879 -37.8418 L 52.5879 4.78516 C 52.5879 8.78906 50.5371 10.8398 46.3867 10.8398 Z"/>
  </g>
  <g id="Bold-L" transform="matrix(1 0 0 1 2238.85 1556)">
   <path d="M 153.711 25.1953 L 168.311 25.1953 C 179.59 25.1953 186.182 18.9453 186.182 8.1543 L 186.182 -78.0273 C 186.182 -88.8184 179.59 -95.0684 168.311 -95.0684 L 153.711 -95.0684 C 142.432 -95.0684 135.889 -88.8184 135.889 -77.9785 L 135.889 8.1543 C 135.889 18.9453 142.432 25.1953 153.711 25.1953 Z M 155.908 12.5 C 151.562 12.5 149.609 10.5469 149.609 6.25 L 149.609 -76.123 C 149.609 -80.4199 151.562 -82.373 155.908 -82.373 L 166.162 -82.373 C 170.508 -82.373 172.461 -80.4199 172.461 -76.123 L 172.461 6.25 C 172.461 10.5469 170.508 12.5 166.113 12.5 Z M 93.7988 25.1953 L 108.398 25.1953 C 119.678 25.1953 126.27 18.9453 126.27 8.1543 L 126.27 -59.668 C 126.27 -70.459 119.678 -76.7578 108.398 -76.7578 L 93.7988 -76.7578 C 82.5195 -76.7578 75.9766 -70.459 75.9766 -59.668 L 75.9766 8.1543 C 75.9766 18.9453 82.5195 25.1953 93.7988 25.1953 Z M 95.9961 12.5 C 91.6504 12.5 89.6973 10.5469 89.6973 6.25 L 89.6973 -57.8125 C 89.6973 -62.0605 91.6504 -64.0137 95.9961 -64.0137 L 106.25 -64.0137 C 110.596 -64.0137 112.549 -62.0605 112.549 -57.8125 L 112.549 6.25 C 112.549 10.5469 110.596 12.5 106.201 12.5 Z M 33.8867 25.1953 L 48.4863 25.1953 C 59.7656 25.1953 66.3574 18.9453 66.3574 8.1543 L 66.3574 -41.2598 C 66.3574 -52.0508 59.7656 -58.3008 48.4863 -58.3008 L 33.8867 -58.3008 C 22.6074 -58.3008 16.0645 -52.0508 16.0645 -41.2109 L 16.0645 8.1543 C 16.0645 18.9453 22.6074 25.1953 33.8867 25.1953 Z M 36.084 12.5 C 31.7383 12.5 29.7852 10.5469 29.7852 6.25 L 29.7852 -39.3555 C 29.7852 -43.6523 31.7383 -45.6055 36.084 -45.6055 L 46.3379 -45.6055 C 50.6836 -45.6055 52.6367 -43.6523 52.6367 -39.3555 L 52.6367 6.25 C 52.6367 10.5469 50.6836 12.5 46.2891 12.5 Z"/>
  </g>
  <g id="Semibold-L" transform="matrix(1 0 0 1 1944.39 1556)">
   <path d="M 149.609 24.707 L 165.283 24.707 C 175.781 24.707 181.689 19.0918 181.689 8.98438 L 181.689 -78.8086 C 181.689 -88.916 175.781 -94.5312 165.283 -94.5312 L 149.609 -94.5312 C 139.111 -94.5312 133.252 -88.916 133.252 -78.8086 L 133.252 8.98438 C 133.252 19.0918 139.111 24.707 149.609 24.707 Z M 151.514 13.623 C 146.973 13.623 145.068 11.7188 145.068 7.27539 L 145.068 -77.0996 C 145.068 -81.543 146.973 -83.4473 151.514 -83.4473 L 163.428 -83.4473 C 167.92 -83.4473 169.824 -81.543 169.824 -77.0996 L 169.824 7.27539 C 169.824 11.7188 167.92 13.623 163.428 13.623 Z M 91.0156 24.707 L 106.689 24.707 C 117.188 24.707 123.096 19.0918 123.096 8.98438 L 123.096 -60.498 C 123.096 -70.5566 117.188 -76.1719 106.689 -76.1719 L 91.0156 -76.1719 C 80.5176 -76.1719 74.6582 -70.5566 74.6582 -60.4492 L 74.6582 8.98438 C 74.6582 19.0918 80.5176 24.707 91.0156 24.707 Z M 92.9199 13.623 C 88.4277 13.623 86.5234 11.7188 86.5234 7.27539 L 86.5234 -58.7402 C 86.5234 -63.2324 88.4277 -65.1367 92.9199 -65.1367 L 104.834 -65.1367 C 109.326 -65.1367 111.23 -63.2324 111.23 -58.7402 L 111.23 7.27539 C 111.23 11.7188 109.326 13.623 104.834 13.623 Z M 32.4219 24.707 L 48.0957 24.707 C 58.5938 24.707 64.502 19.0918 64.502 8.98438 L 64.502 -42.1387 C 64.502 -52.2461 58.5938 -57.8125 48.0957 -57.8125 L 32.4219 -57.8125 C 21.9238 -57.8125 16.0645 -52.2461 16.0645 -42.1387 L 16.0645 8.98438 C 16.0645 19.0918 21.9238 24.707 32.4219 24.707 Z M 34.3262 13.623 C 29.834 13.623 27.9297 11.7188 27.9297 7.27539 L 27.9297 -40.4297 C 27.9297 -44.873 29.834 -46.7773 34.3262 -46.7773 L 46.2402 -46.7773 C 50.7324 -46.7773 52.6367 -44.873 52.6367 -40.4297 L 52.6367 7.27539 C 52.6367 11.7188 50.7324 13.623 46.2402 13.623 Z"/>
  </g>
  <g id="Medium-L" transform="matrix(1 0 0 1 1649.39 1556)">
   <path d="M 146.484 24.3164 L 162.988 24.3164 C 172.9 24.3164 178.271 19.1895 178.271 9.66797 L 178.271 -79.4434 C 178.271 -88.9648 172.9 -94.0918 162.988 -94.0918 L 146.484 -94.0918 C 136.572 -94.0918 131.25 -88.9648 131.25 -79.4434 L 131.25 9.66797 C 131.25 19.1895 136.572 24.3164 146.484 24.3164 Z M 148.145 14.502 C 143.506 14.502 141.65 12.6465 141.65 8.05664 L 141.65 -77.832 C 141.65 -82.4219 143.506 -84.2773 148.145 -84.2773 L 161.377 -84.2773 C 166.016 -84.2773 167.871 -82.4219 167.871 -77.832 L 167.871 8.05664 C 167.871 12.6465 166.016 14.502 161.377 14.502 Z M 88.916 24.3164 L 105.371 24.3164 C 115.283 24.3164 120.703 19.1895 120.703 9.66797 L 120.703 -61.084 C 120.703 -70.6543 115.283 -75.7324 105.371 -75.7324 L 88.916 -75.7324 C 79.0039 -75.7324 73.6328 -70.6543 73.6328 -61.084 L 73.6328 9.66797 C 73.6328 19.1895 79.0039 24.3164 88.916 24.3164 Z M 90.5762 14.502 C 85.9375 14.502 84.082 12.6465 84.082 8.05664 L 84.082 -59.5215 C 84.082 -64.0625 85.9375 -65.9668 90.5762 -65.9668 L 103.76 -65.9668 C 108.398 -65.9668 110.254 -64.0625 110.254 -59.5215 L 110.254 8.05664 C 110.254 12.6465 108.398 14.502 103.76 14.502 Z M 31.2988 24.3164 L 47.8027 24.3164 C 57.7148 24.3164 63.0859 19.1895 63.0859 9.66797 L 63.0859 -42.8223 C 63.0859 -52.3438 57.7148 -57.4707 47.8027 -57.4707 L 31.2988 -57.4707 C 21.3867 -57.4707 16.0645 -52.3438 16.0645 -42.8223 L 16.0645 9.66797 C 16.0645 19.1895 21.3867 24.3164 31.2988 24.3164 Z M 32.959 14.502 C 28.3203 14.502 26.4648 12.6465 26.4648 8.05664 L 26.4648 -41.2109 C 26.4648 -45.8008 28.3203 -47.6562 32.959 -47.6562 L 46.1914 -47.6562 C 50.8301 -47.6562 52.6855 -45.8008 52.6855 -41.2109 L 52.6855 8.05664 C 52.6855 12.6465 50.8301 14.502 46.1914 14.502 Z"/>
  </g>
  <g id="Regular-L" transform="matrix(1 0 0 1 1354.9 1556)">
   <path d="M 142.432 23.7793 L 159.961 23.7793 C 169.092 23.7793 173.828 19.3359 173.828 10.498 L 173.828 -80.2246 C 173.828 -89.0625 169.092 -93.5059 159.961 -93.5059 L 142.432 -93.5059 C 133.301 -93.5059 128.613 -89.0625 128.613 -80.2246 L 128.613 10.498 C 128.613 19.3359 133.301 23.7793 142.432 23.7793 Z M 143.75 15.625 C 138.965 15.625 137.158 13.8184 137.158 9.08203 L 137.158 -78.8086 C 137.158 -83.5449 138.965 -85.3516 143.75 -85.3516 L 158.691 -85.3516 C 163.477 -85.3516 165.283 -83.5449 165.283 -78.8086 L 165.283 9.08203 C 165.283 13.8184 163.477 15.625 158.691 15.625 Z M 86.1328 23.7793 L 103.662 23.7793 C 112.842 23.7793 117.529 19.3359 117.529 10.498 L 117.529 -61.9141 C 117.529 -70.7031 112.842 -75.1953 103.662 -75.1953 L 86.1328 -75.1953 C 77.002 -75.1953 72.3633 -70.7031 72.3633 -61.9141 L 72.3633 10.498 C 72.3633 19.3359 77.002 23.7793 86.1328 23.7793 Z M 87.5 15.625 C 82.7148 15.625 80.9082 13.8184 80.9082 9.08203 L 80.9082 -60.4492 C 80.9082 -65.1855 82.7148 -67.041 87.5 -67.041 L 102.393 -67.041 C 107.178 -67.041 108.984 -65.1855 108.984 -60.4492 L 108.984 9.08203 C 108.984 13.8184 107.178 15.625 102.393 15.625 Z M 29.8828 23.7793 L 47.4121 23.7793 C 56.543 23.7793 61.2793 19.3359 61.2793 10.498 L 61.2793 -43.7012 C 61.2793 -52.5391 56.543 -56.9824 47.4121 -56.9824 L 29.8828 -56.9824 C 20.7031 -56.9824 16.0645 -52.5391 16.0645 -43.7012 L 16.0645 10.498 C 16.0645 19.3359 20.7031 23.7793 29.8828 23.7793 Z M 31.2012 15.625 C 26.416 15.625 24.6094 13.8184 24.6094 9.08203 L 24.6094 -42.2852 C 24.6094 -47.0215 26.416 -48.8281 31.2012 -48.8281 L 46.1426 -48.8281 C 50.9277 -48.8281 52.7344 -47.0215 52.7344 -42.2852 L 52.7344 9.08203 C 52.7344 13.8184 50.9277 15.625 46.1426 15.625 Z"/>
  </g>
  <g id="Light-L" transform="matrix(1 0 0 1 1059.77 1556)">
   <path d="M 139.941 23.3887 L 158.203 23.3887 C 166.406 23.3887 170.654 19.3359 170.654 11.2305 L 170.654 -80.5176 C 170.654 -88.6719 166.406 -92.7246 158.203 -92.7246 L 139.941 -92.7246 C 131.738 -92.7246 127.539 -88.6719 127.539 -80.5176 L 127.539 11.2305 C 127.539 19.3359 131.738 23.3887 139.941 23.3887 Z M 140.771 17.0898 C 136.084 17.0898 134.131 15.0391 134.131 10.3027 L 134.131 -79.6387 C 134.131 -84.375 136.084 -86.4258 140.771 -86.4258 L 157.422 -86.4258 C 162.109 -86.4258 164.062 -84.375 164.062 -79.6387 L 164.062 10.3027 C 164.062 15.0391 162.109 17.0898 157.422 17.0898 Z M 84.2285 23.3887 L 102.441 23.3887 C 110.693 23.3887 114.893 19.3359 114.893 11.2305 L 114.893 -62.3047 C 114.893 -70.4102 110.693 -74.4629 102.441 -74.4629 L 84.2285 -74.4629 C 75.9766 -74.4629 71.8262 -70.4102 71.8262 -62.3047 L 71.8262 11.2305 C 71.8262 19.3359 75.9766 23.3887 84.2285 23.3887 Z M 85.0586 17.0898 C 80.3223 17.0898 78.3691 15.0391 78.3691 10.3027 L 78.3691 -61.377 C 78.3691 -66.1133 80.3223 -68.1641 85.0586 -68.1641 L 101.66 -68.1641 C 106.348 -68.1641 108.35 -66.1133 108.35 -61.377 L 108.35 10.3027 C 108.35 15.0391 106.348 17.0898 101.66 17.0898 Z M 28.4668 23.3887 L 46.7285 23.3887 C 54.9316 23.3887 59.1797 19.3359 59.1797 11.2305 L 59.1797 -44.2871 C 59.1797 -52.4414 54.9316 -56.4941 46.7285 -56.4941 L 28.4668 -56.4941 C 20.2637 -56.4941 16.0645 -52.4414 16.0645 -44.2871 L 16.0645 11.2305 C 16.0645 19.3359 20.2637 23.3887 28.4668 23.3887 Z M 29.2969 17.0898 C 24.6094 17.0898 22.6074 15.0391 22.6074 10.3027 L 22.6074 -43.4082 C 22.6074 -48.1445 24.6094 -50.1953 29.2969 -50.1953 L 45.8984 -50.1953 C 50.6348 -50.1953 52.5879 -48.1445 52.5879 -43.4082 L 52.5879 10.3027 C 52.5879 15.0391 50.6348 17.0898 45.8984 17.0898 Z"/>
  </g>
  <g id="Thin-L" transform="matrix(1 0 0 1 765.162 1556)">
   <path d="M 136.67 22.9004 L 155.908 22.9004 C 162.891 22.9004 166.455 19.3848 166.455 12.1582 L 166.455 -80.9082 C 166.455 -88.1836 162.891 -91.6992 155.908 -91.6992 L 136.67 -91.6992 C 129.688 -91.6992 126.123 -88.1836 126.123 -80.9082 L 126.123 12.1582 C 126.123 19.3848 129.688 22.9004 136.67 22.9004 Z M 136.865 19.043 C 132.227 19.043 130.029 16.748 130.029 11.9629 L 130.029 -80.7129 C 130.029 -85.498 132.227 -87.793 136.865 -87.793 L 155.713 -87.793 C 160.352 -87.793 162.5 -85.498 162.5 -80.7129 L 162.5 11.9629 C 162.5 16.748 160.352 19.043 155.713 19.043 Z M 81.6406 22.9004 L 100.83 22.9004 C 107.861 22.9004 111.426 19.3848 111.426 12.1582 L 111.426 -62.793 C 111.426 -70.0195 107.861 -73.5352 100.83 -73.5352 L 81.6406 -73.5352 C 74.6582 -73.5352 71.0938 -70.0195 71.0938 -62.793 L 71.0938 12.1582 C 71.0938 19.3848 74.6582 22.9004 81.6406 22.9004 Z M 81.8359 19.043 C 77.1973 19.043 75 16.748 75 11.9629 L 75 -62.5977 C 75 -67.334 77.1973 -69.6777 81.8359 -69.6777 L 100.684 -69.6777 C 105.273 -69.6777 107.471 -67.334 107.471 -62.5977 L 107.471 11.9629 C 107.471 16.748 105.273 19.043 100.684 19.043 Z M 26.6113 22.9004 L 45.8008 22.9004 C 52.832 22.9004 56.3477 19.3848 56.3477 12.1582 L 56.3477 -45.0195 C 56.3477 -52.2949 52.832 -55.8105 45.8008 -55.8105 L 26.6113 -55.8105 C 19.6289 -55.8105 16.0645 -52.2949 16.0645 -45.0195 L 16.0645 12.1582 C 16.0645 19.3848 19.6289 22.9004 26.6113 22.9004 Z M 26.8066 19.043 C 22.168 19.043 19.9707 16.748 19.9707 11.9629 L 19.9707 -44.873 C 19.9707 -49.6094 22.168 -51.9531 26.8066 -51.9531 L 45.6543 -51.9531 C 50.2441 -51.9531 52.4414 -49.6094 52.4414 -44.873 L 52.4414 11.9629 C 52.4414 16.748 50.2441 19.043 45.6543 19.043 Z"/>
  </g>
  <g id="Ultralight-L" transform="matrix(1 0 0 1 469.526 1556)">
   <path d="M 135.01 22.6562 L 154.688 22.6562 C 161.084 22.6562 164.307 19.4336 164.307 12.6465 L 164.307 -81.1035 C 164.307 -87.8906 161.084 -91.1621 154.688 -91.1621 L 135.01 -91.1621 C 128.613 -91.1621 125.391 -87.8906 125.391 -81.1035 L 125.391 12.6465 C 125.391 19.4336 128.613 22.6562 135.01 22.6562 Z M 134.814 20.0684 C 130.273 20.0684 127.979 17.5781 127.979 12.8418 L 127.979 -81.2988 C 127.979 -86.0352 130.273 -88.5254 134.814 -88.5254 L 154.834 -88.5254 C 159.424 -88.5254 161.719 -86.0352 161.719 -81.2988 L 161.719 12.8418 C 161.719 17.5781 159.424 20.0684 154.834 20.0684 Z M 80.3223 22.6562 L 100.049 22.6562 C 106.396 22.6562 109.619 19.4336 109.619 12.6465 L 109.619 -63.0371 C 109.619 -69.8242 106.396 -73.0957 100.049 -73.0957 L 80.3223 -73.0957 C 73.9746 -73.0957 70.752 -69.8242 70.752 -63.0371 L 70.752 12.6465 C 70.752 19.4336 73.9746 22.6562 80.3223 22.6562 Z M 80.1758 20.0684 C 75.5859 20.0684 73.291 17.5781 73.291 12.8418 L 73.291 -63.2324 C 73.291 -67.9688 75.5859 -70.459 80.1758 -70.459 L 100.195 -70.459 C 104.736 -70.459 107.031 -67.9688 107.031 -63.2324 L 107.031 12.8418 C 107.031 17.5781 104.736 20.0684 100.195 20.0684 Z M 25.6348 22.6562 L 45.3613 22.6562 C 51.709 22.6562 54.9316 19.4336 54.9316 12.6465 L 54.9316 -45.4102 C 54.9316 -52.1973 51.709 -55.4688 45.3613 -55.4688 L 25.6348 -55.4688 C 19.2871 -55.4688 16.0645 -52.1973 16.0645 -45.4102 L 16.0645 12.6465 C 16.0645 19.4336 19.2871 22.6562 25.6348 22.6562 Z M 25.4883 20.0684 C 20.9473 20.0684 18.6523 17.5781 18.6523 12.8418 L 18.6523 -45.6055 C 18.6523 -50.3418 20.9473 -52.832 25.4883 -52.832 L 45.5078 -52.832 C 50.0488 -52.832 52.3926 -50.3418 52.3926 -45.6055 L 52.3926 12.8418 C 52.3926 17.5781 50.0488 20.0684 45.5078 20.0684 Z"/>
  </g>
  <g id="Black-M" transform="matrix(1 0 0 1 2847.15 1126)">
   <path d="M 133.691 13.4277 L 141.309 13.4277 C 152.539 13.4277 160.059 6.25 160.059 -4.54102 L 160.059 -65.3809 C 160.059 -76.1719 152.539 -83.3496 141.309 -83.3496 L 133.691 -83.3496 C 122.51 -83.3496 114.99 -76.1719 114.99 -65.332 L 114.99 -4.54102 C 114.99 6.25 122.51 13.4277 133.691 13.4277 Z M 82.4219 13.4277 L 90.0391 13.4277 C 101.27 13.4277 108.789 6.25 108.789 -4.54102 L 108.789 -51.2207 C 108.789 -62.0117 101.27 -69.2383 90.0391 -69.2383 L 82.4219 -69.2383 C 71.2402 -69.2383 63.7207 -62.0117 63.7207 -51.1719 L 63.7207 -4.54102 C 63.7207 6.25 71.2402 13.4277 82.4219 13.4277 Z M 136.426 -1.9043 C 133.691 -1.9043 131.885 -3.71094 131.885 -6.34766 L 131.885 -63.5742 C 131.885 -66.2109 133.691 -68.0664 136.426 -68.0664 L 138.623 -68.0664 C 141.357 -68.0664 143.164 -66.2109 143.164 -63.5742 L 143.164 -6.34766 C 143.164 -3.71094 141.357 -1.9043 138.574 -1.9043 Z M 31.1523 13.4277 L 38.7695 13.4277 C 50 13.4277 57.5195 6.25 57.5195 -4.54102 L 57.5195 -36.7188 C 57.5195 -47.5098 50 -54.6875 38.7695 -54.6875 L 31.1523 -54.6875 C 19.9219 -54.6875 12.4512 -47.5098 12.4512 -36.6699 L 12.4512 -4.54102 C 12.4512 6.25 19.9219 13.4277 31.1523 13.4277 Z M 85.1562 -1.9043 C 82.4219 -1.9043 80.6152 -3.71094 80.6152 -6.34766 L 80.6152 -49.4141 C 80.6152 -52.0996 82.4219 -53.9062 85.1562 -53.9062 L 87.3535 -53.9062 C 90.0391 -53.9062 91.8945 -52.0996 91.8945 -49.4141 L 91.8945 -6.34766 C 91.8945 -3.71094 90.0391 -1.9043 87.3047 -1.9043 Z M 33.8867 -1.9043 C 31.1523 -1.9043 29.3457 -3.71094 29.3457 -6.34766 L 29.3457 -34.9121 C 29.3457 -37.5488 31.1523 -39.4043 33.8867 -39.4043 L 36.084 -39.4043 C 38.7695 -39.4043 40.625 -37.5488 40.625 -34.9121 L 40.625 -6.34766 C 40.625 -3.71094 38.7695 -1.9043 35.9863 -1.9043 Z"/>
  </g>
  <g id="Heavy-M" transform="matrix(1 0 0 1 2553.22 1126)">
   <path d="M 128.564 12.793 L 137.451 12.793 C 147.852 12.793 154.492 6.39648 154.492 -3.51562 L 154.492 -66.4551 C 154.492 -76.416 147.852 -82.7637 137.451 -82.7637 L 128.564 -82.7637 C 118.164 -82.7637 111.523 -76.416 111.523 -66.4062 L 111.523 -3.51562 C 111.523 6.39648 118.164 12.793 128.564 12.793 Z M 130.908 -0.634766 C 127.979 -0.634766 126.27 -2.34375 126.27 -5.27344 L 126.27 -64.7461 C 126.27 -67.627 127.979 -69.3359 130.908 -69.3359 L 135.107 -69.3359 C 138.037 -69.3359 139.746 -67.627 139.746 -64.7461 L 139.746 -5.27344 C 139.746 -2.34375 138.037 -0.634766 135.059 -0.634766 Z M 79.0039 12.793 L 87.9395 12.793 C 98.291 12.793 104.932 6.39648 104.932 -3.51562 L 104.932 -52.2949 C 104.932 -62.2559 98.291 -68.6035 87.9395 -68.6035 L 79.0039 -68.6035 C 68.6523 -68.6035 62.0117 -62.2559 62.0117 -52.2461 L 62.0117 -3.51562 C 62.0117 6.39648 68.6523 12.793 79.0039 12.793 Z M 81.3965 -0.634766 C 78.418 -0.634766 76.709 -2.34375 76.709 -5.27344 L 76.709 -50.5859 C 76.709 -53.4668 78.418 -55.1758 81.3965 -55.1758 L 85.5469 -55.1758 C 88.5254 -55.1758 90.2344 -53.4668 90.2344 -50.5859 L 90.2344 -5.27344 C 90.2344 -2.34375 88.5254 -0.634766 85.498 -0.634766 Z M 29.4434 12.793 L 38.3789 12.793 C 48.7793 12.793 55.4199 6.39648 55.4199 -3.51562 L 55.4199 -37.8418 C 55.4199 -47.8027 48.7793 -54.1504 38.3789 -54.1504 L 29.4434 -54.1504 C 19.0918 -54.1504 12.4512 -47.8027 12.4512 -37.793 L 12.4512 -3.51562 C 12.4512 6.39648 19.0918 12.793 29.4434 12.793 Z M 31.8359 -0.634766 C 28.9062 -0.634766 27.1973 -2.34375 27.1973 -5.27344 L 27.1973 -36.1328 C 27.1973 -39.0137 28.9062 -40.7227 31.8359 -40.7227 L 36.0352 -40.7227 C 38.9648 -40.7227 40.6738 -39.0137 40.6738 -36.1328 L 40.6738 -5.27344 C 40.6738 -2.34375 38.9648 -0.634766 35.9863 -0.634766 Z"/>
  </g>
  <g id="Bold-M" transform="matrix(1 0 0 1 2259.61 1126)">
   <path d="M 122.754 12.0605 L 133.154 12.0605 C 142.578 12.0605 148.291 6.64062 148.291 -2.39258 L 148.291 -67.6758 C 148.291 -76.6602 142.578 -82.1289 133.154 -82.1289 L 122.754 -82.1289 C 113.33 -82.1289 107.666 -76.6602 107.666 -67.627 L 107.666 -2.39258 C 107.666 6.64062 113.33 12.0605 122.754 12.0605 Z M 124.756 0.732422 C 121.533 0.732422 119.971 -0.830078 119.971 -4.00391 L 119.971 -66.0645 C 119.971 -69.2383 121.533 -70.752 124.756 -70.752 L 131.152 -70.752 C 134.375 -70.752 135.938 -69.2383 135.938 -66.0645 L 135.938 -4.00391 C 135.938 -0.830078 134.375 0.732422 131.104 0.732422 Z M 75.1465 12.0605 L 85.5469 12.0605 C 94.9707 12.0605 100.684 6.64062 100.684 -2.39258 L 100.684 -53.4668 C 100.684 -62.4512 94.9707 -67.9199 85.5469 -67.9199 L 75.1465 -67.9199 C 65.7227 -67.9199 60.0586 -62.4512 60.0586 -53.418 L 60.0586 -2.39258 C 60.0586 6.64062 65.7227 12.0605 75.1465 12.0605 Z M 77.1484 0.732422 C 73.9258 0.732422 72.3633 -0.830078 72.3633 -4.00391 L 72.3633 -51.8555 C 72.3633 -55.0293 73.9258 -56.5918 77.1484 -56.5918 L 83.5449 -56.5918 C 86.8164 -56.5918 88.3789 -55.0293 88.3789 -51.8555 L 88.3789 -4.00391 C 88.3789 -0.830078 86.8164 0.732422 83.5449 0.732422 Z M 27.5391 12.0605 L 37.9395 12.0605 C 47.3633 12.0605 53.0762 6.64062 53.0762 -2.39258 L 53.0762 -39.1113 C 53.0762 -48.0957 47.3633 -53.5645 37.9395 -53.5645 L 27.5391 -53.5645 C 18.1641 -53.5645 12.4512 -48.0957 12.4512 -39.0625 L 12.4512 -2.39258 C 12.4512 6.64062 18.1641 12.0605 27.5391 12.0605 Z M 29.5898 0.732422 C 26.3184 0.732422 24.7559 -0.830078 24.7559 -4.00391 L 24.7559 -37.5 C 24.7559 -40.6738 26.3184 -42.1875 29.5898 -42.1875 L 35.9863 -42.1875 C 39.209 -42.1875 40.7715 -40.6738 40.7715 -37.5 L 40.7715 -4.00391 C 40.7715 -0.830078 39.209 0.732422 35.9375 0.732422 Z"/>
  </g>
  <g id="Semibold-M" transform="matrix(1 0 0 1 1965.04 1126)">
   <path d="M 118.75 11.5723 L 130.176 11.5723 C 138.916 11.5723 143.994 6.78711 143.994 -1.61133 L 143.994 -68.5059 C 143.994 -76.8555 138.916 -81.6406 130.176 -81.6406 L 118.75 -81.6406 C 110.01 -81.6406 104.98 -76.8555 104.98 -68.457 L 104.98 -1.61133 C 104.98 6.78711 110.01 11.5723 118.75 11.5723 Z M 120.508 1.66016 C 117.09 1.66016 115.625 0.244141 115.625 -3.125 L 115.625 -66.9434 C 115.625 -70.3125 117.09 -71.7773 120.508 -71.7773 L 128.467 -71.7773 C 131.885 -71.7773 133.35 -70.3125 133.35 -66.9434 L 133.35 -3.125 C 133.35 0.244141 131.885 1.66016 128.418 1.66016 Z M 72.5098 11.5723 L 83.9355 11.5723 C 92.6758 11.5723 97.7539 6.78711 97.7539 -1.61133 L 97.7539 -54.248 C 97.7539 -62.6465 92.6758 -67.4316 83.9355 -67.4316 L 72.5098 -67.4316 C 63.7207 -67.4316 58.6914 -62.6465 58.6914 -54.248 L 58.6914 -1.61133 C 58.6914 6.78711 63.7207 11.5723 72.5098 11.5723 Z M 74.2676 1.66016 C 70.8496 1.66016 69.3848 0.244141 69.3848 -3.125 L 69.3848 -52.7344 C 69.3848 -56.0547 70.8496 -57.5195 74.2676 -57.5195 L 82.1777 -57.5195 C 85.5957 -57.5195 87.0605 -56.0547 87.0605 -52.7344 L 87.0605 -3.125 C 87.0605 0.244141 85.5957 1.66016 82.1777 1.66016 Z M 26.2695 11.5723 L 37.6465 11.5723 C 46.4355 11.5723 51.4648 6.78711 51.4648 -1.61133 L 51.4648 -39.9414 C 51.4648 -48.3398 46.4355 -53.125 37.6465 -53.125 L 26.2695 -53.125 C 17.4805 -53.125 12.4512 -48.3398 12.4512 -39.9414 L 12.4512 -1.61133 C 12.4512 6.78711 17.4805 11.5723 26.2695 11.5723 Z M 28.0273 1.66016 C 24.6094 1.66016 23.0957 0.244141 23.0957 -3.125 L 23.0957 -38.4277 C 23.0957 -41.7969 24.6094 -43.2129 28.0273 -43.2129 L 35.9375 -43.2129 C 39.3555 -43.2129 40.8203 -41.7969 40.8203 -38.4277 L 40.8203 -3.125 C 40.8203 0.244141 39.3555 1.66016 35.8887 1.66016 Z"/>
  </g>
  <g id="Medium-M" transform="matrix(1 0 0 1 1669.94 1126)">
   <path d="M 115.723 11.1816 L 127.93 11.1816 C 136.182 11.1816 140.771 6.88477 140.771 -0.976562 L 140.771 -69.1406 C 140.771 -77.002 136.182 -81.2988 127.93 -81.2988 L 115.723 -81.2988 C 107.471 -81.2988 102.93 -77.002 102.93 -69.0918 L 102.93 -0.976562 C 102.93 6.88477 107.471 11.1816 115.723 11.1816 Z M 117.285 2.39258 C 113.721 2.39258 112.354 1.02539 112.354 -2.49023 L 112.354 -67.627 C 112.354 -71.1426 113.721 -72.5098 117.285 -72.5098 L 126.367 -72.5098 C 129.932 -72.5098 131.348 -71.1426 131.348 -67.627 L 131.348 -2.49023 C 131.348 1.02539 129.932 2.39258 126.367 2.39258 Z M 70.5078 11.1816 L 82.666 11.1816 C 90.918 11.1816 95.5078 6.88477 95.5078 -0.976562 L 95.5078 -54.8828 C 95.5078 -62.7441 90.918 -67.0898 82.666 -67.0898 L 70.5078 -67.0898 C 62.207 -67.0898 57.7148 -62.7441 57.7148 -54.8828 L 57.7148 -0.976562 C 57.7148 6.88477 62.207 11.1816 70.5078 11.1816 Z M 72.0703 2.39258 C 68.5059 2.39258 67.0898 1.02539 67.0898 -2.49023 L 67.0898 -53.3691 C 67.0898 -56.8848 68.5059 -58.252 72.0703 -58.252 L 81.1523 -58.252 C 84.7168 -58.252 86.084 -56.8848 86.084 -53.3691 L 86.084 -2.49023 C 86.084 1.02539 84.7168 2.39258 81.1523 2.39258 Z M 25.2441 11.1816 L 37.4023 11.1816 C 45.7031 11.1816 50.2441 6.88477 50.2441 -0.976562 L 50.2441 -40.625 C 50.2441 -48.4863 45.7031 -52.832 37.4023 -52.832 L 25.2441 -52.832 C 16.9922 -52.832 12.4512 -48.4863 12.4512 -40.625 L 12.4512 -0.976562 C 12.4512 6.88477 16.9922 11.1816 25.2441 11.1816 Z M 26.8066 2.39258 C 23.2422 2.39258 21.875 1.02539 21.875 -2.49023 L 21.875 -39.1113 C 21.875 -42.627 23.2422 -43.9941 26.8066 -43.9941 L 35.8887 -43.9941 C 39.4531 -43.9941 40.8691 -42.627 40.8691 -39.1113 L 40.8691 -2.49023 C 40.8691 1.02539 39.4531 2.39258 35.8887 2.39258 Z"/>
  </g>
  <g id="Regular-M" transform="matrix(1 0 0 1 1375.36 1126)">
   <path d="M 111.768 10.6934 L 124.951 10.6934 C 132.568 10.6934 136.523 7.03125 136.523 -0.195312 L 136.523 -69.9219 C 136.523 -77.1484 132.568 -80.8594 124.951 -80.8594 L 111.768 -80.8594 C 104.199 -80.8594 100.293 -77.1484 100.293 -69.9219 L 100.293 -0.195312 C 100.293 7.03125 104.199 10.6934 111.768 10.6934 Z M 113.086 3.32031 C 109.375 3.32031 108.057 2.05078 108.057 -1.61133 L 108.057 -68.5059 C 108.057 -72.2168 109.375 -73.4863 113.086 -73.4863 L 123.682 -73.4863 C 127.441 -73.4863 128.76 -72.2168 128.76 -68.5059 L 128.76 -1.61133 C 128.76 2.05078 127.441 3.32031 123.682 3.32031 Z M 67.8711 10.6934 L 81.0547 10.6934 C 88.6719 10.6934 92.5781 7.03125 92.5781 -0.195312 L 92.5781 -55.6641 C 92.5781 -62.8906 88.6719 -66.6016 81.0547 -66.6016 L 67.8711 -66.6016 C 60.2539 -66.6016 56.3477 -62.8906 56.3477 -55.6641 L 56.3477 -0.195312 C 56.3477 7.03125 60.2539 10.6934 67.8711 10.6934 Z M 69.1895 3.32031 C 65.4297 3.32031 64.1113 2.05078 64.1113 -1.61133 L 64.1113 -54.248 C 64.1113 -57.959 65.4297 -59.2285 69.1895 -59.2285 L 79.7852 -59.2285 C 83.5449 -59.2285 84.8145 -57.959 84.8145 -54.248 L 84.8145 -1.61133 C 84.8145 2.05078 83.5449 3.32031 79.7852 3.32031 Z M 23.9746 10.6934 L 37.1094 10.6934 C 44.7266 10.6934 48.6816 7.03125 48.6816 -0.195312 L 48.6816 -41.4551 C 48.6816 -48.6816 44.7266 -52.3926 37.1094 -52.3926 L 23.9746 -52.3926 C 16.3574 -52.3926 12.4512 -48.6816 12.4512 -41.4551 L 12.4512 -0.195312 C 12.4512 7.03125 16.3574 10.6934 23.9746 10.6934 Z M 25.2441 3.32031 C 21.5332 3.32031 20.2148 2.05078 20.2148 -1.61133 L 20.2148 -40.0391 C 20.2148 -43.75 21.5332 -45.0195 25.2441 -45.0195 L 35.8398 -45.0195 C 39.5996 -45.0195 40.918 -43.75 40.918 -40.0391 L 40.918 -1.61133 C 40.918 2.05078 39.5996 3.32031 35.8398 3.32031 Z"/>
  </g>
  <g id="Light-M" transform="matrix(1 0 0 1 1080.06 1126)">
   <path d="M 109.57 10.4004 L 123.389 10.4004 C 130.176 10.4004 133.691 7.03125 133.691 0.439453 L 133.691 -70.2148 C 133.691 -76.8066 130.176 -80.127 123.389 -80.127 L 109.57 -80.127 C 102.783 -80.127 99.3164 -76.8066 99.3164 -70.2148 L 99.3164 0.439453 C 99.3164 7.03125 102.783 10.4004 109.57 10.4004 Z M 110.449 4.6875 C 106.738 4.6875 105.322 3.17383 105.322 -0.488281 L 105.322 -69.2871 C 105.322 -72.9492 106.738 -74.4141 110.449 -74.4141 L 122.559 -74.4141 C 126.221 -74.4141 127.686 -72.9492 127.686 -69.2871 L 127.686 -0.488281 C 127.686 3.17383 126.221 4.6875 122.559 4.6875 Z M 66.1133 10.4004 L 79.9805 10.4004 C 86.7188 10.4004 90.2344 7.03125 90.2344 0.439453 L 90.2344 -56.0059 C 90.2344 -62.6465 86.7188 -65.9668 79.9805 -65.9668 L 66.1133 -65.9668 C 59.3262 -65.9668 55.9082 -62.6465 55.9082 -56.0059 L 55.9082 0.439453 C 55.9082 7.03125 59.3262 10.4004 66.1133 10.4004 Z M 66.9922 4.6875 C 63.3301 4.6875 61.8652 3.17383 61.8652 -0.488281 L 61.8652 -55.0781 C 61.8652 -58.7891 63.3301 -60.2539 66.9922 -60.2539 L 79.1016 -60.2539 C 82.8125 -60.2539 84.2773 -58.7891 84.2773 -55.0781 L 84.2773 -0.488281 C 84.2773 3.17383 82.8125 4.6875 79.1016 4.6875 Z M 22.7051 10.4004 L 36.5234 10.4004 C 43.3105 10.4004 46.7773 7.03125 46.7773 0.439453 L 46.7773 -41.9922 C 46.7773 -48.584 43.3105 -51.9531 36.5234 -51.9531 L 22.7051 -51.9531 C 15.918 -51.9531 12.4512 -48.584 12.4512 -41.9922 L 12.4512 0.439453 C 12.4512 7.03125 15.918 10.4004 22.7051 10.4004 Z M 23.584 4.6875 C 19.873 4.6875 18.4082 3.17383 18.4082 -0.488281 L 18.4082 -41.0645 C 18.4082 -44.7266 19.873 -46.1914 23.584 -46.1914 L 35.6934 -46.1914 C 39.3555 -46.1914 40.8203 -44.7266 40.8203 -41.0645 L 40.8203 -0.488281 C 40.8203 3.17383 39.3555 4.6875 35.6934 4.6875 Z"/>
  </g>
  <g id="Thin-M" transform="matrix(1 0 0 1 785.255 1126)">
   <path d="M 106.641 9.96094 L 121.338 9.96094 C 127.002 9.96094 129.883 7.08008 129.883 1.31836 L 129.883 -70.5566 C 129.883 -76.3672 127.002 -79.1992 121.338 -79.1992 L 106.641 -79.1992 C 100.928 -79.1992 98.0469 -76.3672 98.0469 -70.5566 L 98.0469 1.31836 C 98.0469 7.08008 100.928 9.96094 106.641 9.96094 Z M 106.934 6.39648 C 103.32 6.39648 101.66 4.6875 101.66 0.976562 L 101.66 -70.2637 C 101.66 -73.9258 103.32 -75.6836 106.934 -75.6836 L 121.045 -75.6836 C 124.658 -75.6836 126.27 -73.9258 126.27 -70.2637 L 126.27 0.976562 C 126.27 4.6875 124.658 6.39648 121.045 6.39648 Z M 63.8184 9.96094 L 78.5156 9.96094 C 84.1797 9.96094 87.1094 7.08008 87.1094 1.31836 L 87.1094 -56.4941 C 87.1094 -62.3047 84.1797 -65.1367 78.5156 -65.1367 L 63.8184 -65.1367 C 58.1543 -65.1367 55.2734 -62.3047 55.2734 -56.4941 L 55.2734 1.31836 C 55.2734 7.08008 58.1543 9.96094 63.8184 9.96094 Z M 64.1113 6.39648 C 60.498 6.39648 58.8379 4.6875 58.8379 0.976562 L 58.8379 -56.2012 C 58.8379 -59.8633 60.498 -61.6211 64.1113 -61.6211 L 78.2227 -61.6211 C 81.8359 -61.6211 83.4961 -59.8633 83.4961 -56.2012 L 83.4961 0.976562 C 83.4961 4.6875 81.8359 6.39648 78.2227 6.39648 Z M 21.0449 9.96094 L 35.6934 9.96094 C 41.4062 9.96094 44.2871 7.08008 44.2871 1.31836 L 44.2871 -42.6758 C 44.2871 -48.4863 41.4062 -51.3184 35.6934 -51.3184 L 21.0449 -51.3184 C 15.332 -51.3184 12.4512 -48.4863 12.4512 -42.6758 L 12.4512 1.31836 C 12.4512 7.08008 15.332 9.96094 21.0449 9.96094 Z M 21.2891 6.39648 C 17.7246 6.39648 16.0645 4.6875 16.0645 0.976562 L 16.0645 -42.3828 C 16.0645 -46.0449 17.7246 -47.8027 21.2891 -47.8027 L 35.4492 -47.8027 C 39.0137 -47.8027 40.6738 -46.0449 40.6738 -42.3828 L 40.6738 0.976562 C 40.6738 4.6875 39.0137 6.39648 35.4492 6.39648 Z"/>
  </g>
  <g id="Ultralight-M" transform="matrix(1 0 0 1 489.496 1126)">
   <path d="M 105.127 9.7168 L 120.264 9.7168 C 125.391 9.7168 127.979 7.12891 127.979 1.70898 L 127.979 -70.752 C 127.979 -76.123 125.391 -78.7109 120.264 -78.7109 L 105.127 -78.7109 C 100 -78.7109 97.4121 -76.123 97.4121 -70.752 L 97.4121 1.70898 C 97.4121 7.12891 100 9.7168 105.127 9.7168 Z M 105.127 7.32422 C 101.562 7.32422 99.8047 5.41992 99.8047 1.75781 L 99.8047 -70.752 C 99.8047 -74.4629 101.562 -76.3184 105.127 -76.3184 L 120.264 -76.3184 C 123.828 -76.3184 125.586 -74.4629 125.586 -70.752 L 125.586 1.75781 C 125.586 5.41992 123.828 7.32422 120.264 7.32422 Z M 62.6465 9.7168 L 77.7832 9.7168 C 82.9102 9.7168 85.498 7.12891 85.498 1.70898 L 85.498 -56.7383 C 85.498 -62.1094 82.9102 -64.6973 77.7832 -64.6973 L 62.6465 -64.6973 C 57.5195 -64.6973 54.9316 -62.1094 54.9316 -56.7383 L 54.9316 1.70898 C 54.9316 7.12891 57.5195 9.7168 62.6465 9.7168 Z M 62.6465 7.32422 C 59.082 7.32422 57.3242 5.41992 57.3242 1.75781 L 57.3242 -56.7383 C 57.3242 -60.4004 59.082 -62.3047 62.6465 -62.3047 L 77.7832 -62.3047 C 81.3477 -62.3047 83.1055 -60.4004 83.1055 -56.7383 L 83.1055 1.75781 C 83.1055 5.41992 81.3477 7.32422 77.7832 7.32422 Z M 20.166 9.7168 L 35.3027 9.7168 C 40.4297 9.7168 43.0176 7.12891 43.0176 1.70898 L 43.0176 -43.0176 C 43.0176 -48.3887 40.4297 -51.0254 35.3027 -51.0254 L 20.166 -51.0254 C 15.0391 -51.0254 12.4512 -48.3887 12.4512 -43.0176 L 12.4512 1.70898 C 12.4512 7.12891 15.0391 9.7168 20.166 9.7168 Z M 20.166 7.32422 C 16.6016 7.32422 14.8438 5.41992 14.8438 1.75781 L 14.8438 -43.0664 C 14.8438 -46.7285 16.6016 -48.584 20.166 -48.584 L 35.3027 -48.584 C 38.8672 -48.584 40.625 -46.7285 40.625 -43.0664 L 40.625 1.75781 C 40.625 5.41992 38.8672 7.32422 35.3027 7.32422 Z"/>
  </g>
  <g id="Black-S" transform="matrix(1 0 0 1 2866.02 696)">
   <path d="M 104.395 2.83203 L 110.449 2.83203 C 119.189 2.83203 125 -2.73438 125 -11.1328 L 125 -58.9355 C 125 -67.334 119.189 -72.9004 110.449 -72.9004 L 104.395 -72.9004 C 95.6543 -72.9004 89.8438 -67.334 89.8438 -58.8867 L 89.8438 -11.1328 C 89.8438 -2.73438 95.6543 2.83203 104.395 2.83203 Z M 64.3555 2.83203 L 70.4102 2.83203 C 79.1504 2.83203 84.9609 -2.73438 84.9609 -11.1328 L 84.9609 -47.8516 C 84.9609 -56.25 79.1504 -61.8164 70.4102 -61.8164 L 64.3555 -61.8164 C 55.6152 -61.8164 49.8047 -56.25 49.8047 -47.8027 L 49.8047 -11.1328 C 49.8047 -2.73438 55.6152 2.83203 64.3555 2.83203 Z M 106.494 -9.0332 C 104.346 -9.0332 102.93 -10.4492 102.93 -12.5488 L 102.93 -57.5195 C 102.93 -59.6191 104.346 -61.0352 106.494 -61.0352 L 108.35 -61.0352 C 110.498 -61.0352 111.914 -59.6191 111.914 -57.5195 L 111.914 -12.5488 C 111.914 -10.4492 110.498 -9.0332 108.301 -9.0332 Z M 24.3164 2.83203 L 30.3711 2.83203 C 39.1113 2.83203 44.9219 -2.73438 44.9219 -11.1328 L 44.9219 -36.4746 C 44.9219 -44.873 39.1113 -50.4395 30.3711 -50.4395 L 24.3164 -50.4395 C 15.5762 -50.4395 9.76562 -44.873 9.76562 -36.4258 L 9.76562 -11.1328 C 9.76562 -2.73438 15.5762 2.83203 24.3164 2.83203 Z M 66.4551 -9.0332 C 64.3066 -9.0332 62.8906 -10.4492 62.8906 -12.5488 L 62.8906 -46.4355 C 62.8906 -48.5352 64.3066 -49.9512 66.4551 -49.9512 L 68.3105 -49.9512 C 70.459 -49.9512 71.875 -48.5352 71.875 -46.4355 L 71.875 -12.5488 C 71.875 -10.4492 70.459 -9.0332 68.2617 -9.0332 Z M 26.416 -9.0332 C 24.2676 -9.0332 22.8516 -10.4492 22.8516 -12.5488 L 22.8516 -35.0586 C 22.8516 -37.1582 24.2676 -38.5742 26.416 -38.5742 L 28.2715 -38.5742 C 30.4199 -38.5742 31.8359 -37.1582 31.8359 -35.0586 L 31.8359 -12.5488 C 31.8359 -10.4492 30.4199 -9.0332 28.2227 -9.0332 Z"/>
  </g>
  <g id="Heavy-S" transform="matrix(1 0 0 1 2571.26 696)">
   <path d="M 100.684 2.39258 L 107.666 2.39258 C 115.869 2.39258 121.094 -2.58789 121.094 -10.4004 L 121.094 -59.7168 C 121.094 -67.5293 115.869 -72.5098 107.666 -72.5098 L 100.684 -72.5098 C 92.4805 -72.5098 87.3047 -67.5293 87.3047 -59.668 L 87.3047 -10.4004 C 87.3047 -2.58789 92.4805 2.39258 100.684 2.39258 Z M 102.588 -8.25195 C 100.244 -8.25195 98.9258 -9.52148 98.9258 -11.8164 L 98.9258 -58.3496 C 98.9258 -60.5957 100.244 -61.9141 102.588 -61.9141 L 105.762 -61.9141 C 108.105 -61.9141 109.424 -60.5957 109.424 -58.3496 L 109.424 -11.8164 C 109.424 -9.52148 108.105 -8.25195 105.762 -8.25195 Z M 61.9141 2.39258 L 68.8965 2.39258 C 77.0996 2.39258 82.3242 -2.58789 82.3242 -10.4004 L 82.3242 -48.6328 C 82.3242 -56.4453 77.0996 -61.4258 68.8965 -61.4258 L 61.9141 -61.4258 C 53.7598 -61.4258 48.5352 -56.4453 48.5352 -48.584 L 48.5352 -10.4004 C 48.5352 -2.58789 53.7598 2.39258 61.9141 2.39258 Z M 63.8184 -8.25195 C 61.4746 -8.25195 60.1562 -9.52148 60.1562 -11.8164 L 60.1562 -47.2168 C 60.1562 -49.5117 61.4746 -50.7812 63.8184 -50.7812 L 67.041 -50.7812 C 69.3848 -50.7812 70.6543 -49.5117 70.6543 -47.2168 L 70.6543 -11.8164 C 70.6543 -9.52148 69.3848 -8.25195 66.9922 -8.25195 Z M 23.1445 2.39258 L 30.127 2.39258 C 38.3301 2.39258 43.5547 -2.58789 43.5547 -10.4004 L 43.5547 -37.2559 C 43.5547 -45.1172 38.3301 -50.0977 30.127 -50.0977 L 23.1445 -50.0977 C 14.9902 -50.0977 9.76562 -45.1172 9.76562 -37.2559 L 9.76562 -10.4004 C 9.76562 -2.58789 14.9902 2.39258 23.1445 2.39258 Z M 25.0488 -8.25195 C 22.7051 -8.25195 21.3867 -9.52148 21.3867 -11.8164 L 21.3867 -35.8887 C 21.3867 -38.1836 22.7051 -39.4531 25.0488 -39.4531 L 28.2715 -39.4531 C 30.6152 -39.4531 31.8848 -38.1836 31.8848 -35.8887 L 31.8848 -11.8164 C 31.8848 -9.52148 30.6152 -8.25195 28.2227 -8.25195 Z"/>
  </g>
  <g id="Bold-S" transform="matrix(1 0 0 1 2276.77 696)">
   <path d="M 96.5332 1.85547 L 104.59 1.85547 C 112.109 1.85547 116.65 -2.44141 116.65 -9.61914 L 116.65 -60.5957 C 116.65 -67.7734 112.109 -72.1191 104.59 -72.1191 L 96.5332 -72.1191 C 88.9648 -72.1191 84.4238 -67.7734 84.4238 -60.5957 L 84.4238 -9.61914 C 84.4238 -2.44141 88.9648 1.85547 96.5332 1.85547 Z M 98.1934 -7.32422 C 95.6543 -7.32422 94.4824 -8.49609 94.4824 -10.9863 L 94.4824 -59.2285 C 94.4824 -61.7188 95.6543 -62.8906 98.1934 -62.8906 L 102.93 -62.8906 C 105.469 -62.8906 106.641 -61.7188 106.641 -59.2285 L 106.641 -10.9863 C 106.641 -8.49609 105.469 -7.32422 102.881 -7.32422 Z M 59.1797 1.85547 L 67.2363 1.85547 C 74.7559 1.85547 79.3457 -2.44141 79.3457 -9.61914 L 79.3457 -49.4629 C 79.3457 -56.6406 74.7559 -60.9863 67.2363 -60.9863 L 59.1797 -60.9863 C 51.6602 -60.9863 47.1191 -56.6406 47.1191 -49.4629 L 47.1191 -9.61914 C 47.1191 -2.44141 51.6602 1.85547 59.1797 1.85547 Z M 60.8887 -7.32422 C 58.3008 -7.32422 57.1289 -8.49609 57.1289 -10.9863 L 57.1289 -48.0957 C 57.1289 -50.5859 58.3008 -51.7578 60.8887 -51.7578 L 65.5762 -51.7578 C 68.1152 -51.7578 69.3359 -50.5859 69.3359 -48.0957 L 69.3359 -10.9863 C 69.3359 -8.49609 68.1152 -7.32422 65.5273 -7.32422 Z M 21.875 1.85547 L 29.8828 1.85547 C 37.4512 1.85547 41.9922 -2.44141 41.9922 -9.61914 L 41.9922 -38.1836 C 41.9922 -45.3613 37.4512 -49.6582 29.8828 -49.6582 L 21.875 -49.6582 C 14.3066 -49.6582 9.76562 -45.3613 9.76562 -38.1348 L 9.76562 -9.61914 C 9.76562 -2.44141 14.3066 1.85547 21.875 1.85547 Z M 23.5352 -7.32422 C 20.9473 -7.32422 19.7754 -8.49609 19.7754 -10.9863 L 19.7754 -36.8164 C 19.7754 -39.3066 20.9473 -40.4297 23.5352 -40.4297 L 28.2227 -40.4297 C 30.8105 -40.4297 31.9824 -39.3066 31.9824 -36.8164 L 31.9824 -10.9863 C 31.9824 -8.49609 30.8105 -7.32422 28.2227 -7.32422 Z"/>
  </g>
  <g id="Semibold-S" transform="matrix(1 0 0 1 1981.57 696)">
   <path d="M 93.6523 1.51367 L 102.441 1.51367 C 109.521 1.51367 113.623 -2.34375 113.623 -9.08203 L 113.623 -61.2305 C 113.623 -67.9688 109.521 -71.8262 102.441 -71.8262 L 93.6523 -71.8262 C 86.5723 -71.8262 82.4707 -67.9688 82.4707 -61.2305 L 82.4707 -9.08203 C 82.4707 -2.34375 86.5723 1.51367 93.6523 1.51367 Z M 95.166 -6.73828 C 92.4805 -6.73828 91.4062 -7.8125 91.4062 -10.4492 L 91.4062 -59.8633 C 91.4062 -62.5 92.4805 -63.5742 95.166 -63.5742 L 100.928 -63.5742 C 103.662 -63.5742 104.736 -62.5 104.736 -59.8633 L 104.736 -10.4492 C 104.736 -7.8125 103.662 -6.73828 100.928 -6.73828 Z M 57.3242 1.51367 L 66.0645 1.51367 C 73.1934 1.51367 77.2949 -2.34375 77.2949 -9.08203 L 77.2949 -50.0488 C 77.2949 -56.7871 73.1934 -60.6445 66.0645 -60.6445 L 57.3242 -60.6445 C 50.1953 -60.6445 46.1426 -56.7871 46.1426 -50.0488 L 46.1426 -9.08203 C 46.1426 -2.34375 50.1953 1.51367 57.3242 1.51367 Z M 58.8379 -6.73828 C 56.1035 -6.73828 55.0293 -7.8125 55.0293 -10.4492 L 55.0293 -48.6816 C 55.0293 -51.3184 56.1035 -52.3926 58.8379 -52.3926 L 64.5996 -52.3926 C 67.2852 -52.3926 68.3594 -51.3184 68.3594 -48.6816 L 68.3594 -10.4492 C 68.3594 -7.8125 67.2852 -6.73828 64.5508 -6.73828 Z M 20.9473 1.51367 L 29.6875 1.51367 C 36.8164 1.51367 40.918 -2.34375 40.918 -9.08203 L 40.918 -38.7695 C 40.918 -45.5078 36.8164 -49.4141 29.6875 -49.4141 L 20.9473 -49.4141 C 13.8184 -49.4141 9.76562 -45.5078 9.76562 -38.7695 L 9.76562 -9.08203 C 9.76562 -2.34375 13.8184 1.51367 20.9473 1.51367 Z M 22.4609 -6.73828 C 19.7754 -6.73828 18.6523 -7.8125 18.6523 -10.4492 L 18.6523 -37.4512 C 18.6523 -40.0391 19.7754 -41.1133 22.4609 -41.1133 L 28.2227 -41.1133 C 30.9082 -41.1133 32.0312 -40.0391 32.0312 -37.4512 L 32.0312 -10.4492 C 32.0312 -7.8125 30.9082 -6.73828 28.2227 -6.73828 Z"/>
  </g>
  <g id="Medium-S" transform="matrix(1 0 0 1 1686.01 696)">
   <path d="M 91.5039 1.26953 L 100.781 1.26953 C 107.617 1.26953 111.328 -2.24609 111.328 -8.64258 L 111.328 -61.6699 C 111.328 -68.0664 107.617 -71.6309 100.781 -71.6309 L 91.5039 -71.6309 C 84.7168 -71.6309 81.0059 -68.0664 81.0059 -61.6699 L 81.0059 -8.64258 C 81.0059 -2.24609 84.7168 1.26953 91.5039 1.26953 Z M 92.9199 -6.25 C 90.0879 -6.25 89.0625 -7.27539 89.0625 -10.0098 L 89.0625 -60.3516 C 89.0625 -63.0859 90.0879 -64.0625 92.9199 -64.0625 L 99.4141 -64.0625 C 102.246 -64.0625 103.271 -63.0859 103.271 -60.3516 L 103.271 -10.0098 C 103.271 -7.27539 102.246 -6.25 99.4141 -6.25 Z M 55.9082 1.26953 L 65.1855 1.26953 C 71.9727 1.26953 75.7324 -2.24609 75.7324 -8.64258 L 75.7324 -50.4883 C 75.7324 -56.8848 71.9727 -60.4004 65.1855 -60.4004 L 55.9082 -60.4004 C 49.0723 -60.4004 45.3613 -56.8848 45.3613 -50.4883 L 45.3613 -8.64258 C 45.3613 -2.24609 49.0723 1.26953 55.9082 1.26953 Z M 57.2754 -6.25 C 54.4434 -6.25 53.418 -7.27539 53.418 -10.0098 L 53.418 -49.1211 C 53.418 -51.9043 54.4434 -52.8809 57.2754 -52.8809 L 63.8184 -52.8809 C 66.6504 -52.8809 67.6758 -51.9043 67.6758 -49.1211 L 67.6758 -10.0098 C 67.6758 -7.27539 66.6504 -6.25 63.8184 -6.25 Z M 20.2637 1.26953 L 29.5898 1.26953 C 36.377 1.26953 40.1367 -2.24609 40.1367 -8.64258 L 40.1367 -39.2578 C 40.1367 -45.6543 36.377 -49.1699 29.5898 -49.1699 L 20.2637 -49.1699 C 13.4766 -49.1699 9.76562 -45.6543 9.76562 -39.2578 L 9.76562 -8.64258 C 9.76562 -2.24609 13.4766 1.26953 20.2637 1.26953 Z M 21.6797 -6.25 C 18.8477 -6.25 17.8223 -7.27539 17.8223 -10.0098 L 17.8223 -37.8906 C 17.8223 -40.625 18.8477 -41.6504 21.6797 -41.6504 L 28.2227 -41.6504 C 31.0059 -41.6504 32.0801 -40.625 32.0801 -37.8906 L 32.0801 -10.0098 C 32.0801 -7.27539 31.0059 -6.25 28.2227 -6.25 Z"/>
  </g>
  <g id="Regular-S" transform="matrix(1 0 0 1 1390.79 696)">
   <path d="M 88.6719 0.927734 L 98.6816 0.927734 C 105.029 0.927734 108.35 -2.14844 108.35 -8.10547 L 108.35 -62.3047 C 108.35 -68.2617 105.029 -71.3379 98.6816 -71.3379 L 88.6719 -71.3379 C 82.3242 -71.3379 79.0527 -68.2617 79.0527 -62.3047 L 79.0527 -8.10547 C 79.0527 -2.14844 82.3242 0.927734 88.6719 0.927734 Z M 89.9414 -5.66406 C 86.9629 -5.66406 85.9863 -6.54297 85.9863 -9.42383 L 85.9863 -60.9375 C 85.9863 -63.8184 86.9629 -64.7461 89.9414 -64.7461 L 97.4609 -64.7461 C 100.439 -64.7461 101.416 -63.8184 101.416 -60.9375 L 101.416 -9.42383 C 101.416 -6.54297 100.439 -5.66406 97.4609 -5.66406 Z M 54.0039 0.927734 L 64.0625 0.927734 C 70.4102 0.927734 73.6816 -2.14844 73.6816 -8.10547 L 73.6816 -51.0742 C 73.6816 -57.0312 70.4102 -60.1074 64.0625 -60.1074 L 54.0039 -60.1074 C 47.6562 -60.1074 44.3848 -57.0312 44.3848 -51.0742 L 44.3848 -8.10547 C 44.3848 -2.14844 47.6562 0.927734 54.0039 0.927734 Z M 55.2734 -5.66406 C 52.2949 -5.66406 51.3672 -6.54297 51.3672 -9.42383 L 51.3672 -49.7559 C 51.3672 -52.6367 52.2949 -53.5156 55.2734 -53.5156 L 62.8418 -53.5156 C 65.8203 -53.5156 66.748 -52.6367 66.748 -49.7559 L 66.748 -9.42383 C 66.748 -6.54297 65.8203 -5.66406 62.8418 -5.66406 Z M 19.3848 0.927734 L 29.3945 0.927734 C 35.7422 0.927734 39.0625 -2.14844 39.0625 -8.10547 L 39.0625 -39.8926 C 39.0625 -45.8496 35.7422 -48.9258 29.3945 -48.9258 L 19.3848 -48.9258 C 13.0371 -48.9258 9.76562 -45.8496 9.76562 -39.8926 L 9.76562 -8.10547 C 9.76562 -2.14844 13.0371 0.927734 19.3848 0.927734 Z M 20.6543 -5.66406 C 17.6758 -5.66406 16.6992 -6.54297 16.6992 -9.42383 L 16.6992 -38.5254 C 16.6992 -41.4062 17.6758 -42.334 20.6543 -42.334 L 28.1738 -42.334 C 31.1523 -42.334 32.1289 -41.4062 32.1289 -38.5254 L 32.1289 -9.42383 C 32.1289 -6.54297 31.1523 -5.66406 28.1738 -5.66406 Z"/>
  </g>
  <g id="Light-S" transform="matrix(1 0 0 1 1095.35 696)">
   <path d="M 86.7188 0.634766 L 97.2656 0.634766 C 102.93 0.634766 105.811 -2.09961 105.811 -7.51953 L 105.811 -62.5488 C 105.811 -67.9688 102.93 -70.7031 97.2656 -70.7031 L 86.7188 -70.7031 C 81.0547 -70.7031 78.2227 -67.9688 78.2227 -62.5488 L 78.2227 -7.51953 C 78.2227 -2.09961 81.0547 0.634766 86.7188 0.634766 Z M 87.5488 -4.49219 C 84.668 -4.49219 83.5449 -5.56641 83.5449 -8.44727 L 83.5449 -61.6211 C 83.5449 -64.502 84.668 -65.5762 87.5488 -65.5762 L 96.4844 -65.5762 C 99.3652 -65.5762 100.439 -64.502 100.439 -61.6211 L 100.439 -8.44727 C 100.439 -5.56641 99.3652 -4.49219 96.4844 -4.49219 Z M 52.4902 0.634766 L 63.0859 0.634766 C 68.7012 0.634766 71.6309 -2.09961 71.6309 -7.51953 L 71.6309 -51.3672 C 71.6309 -56.7871 68.7012 -59.5703 63.0859 -59.5703 L 52.4902 -59.5703 C 46.875 -59.5703 43.9941 -56.7871 43.9941 -51.3672 L 43.9941 -7.51953 C 43.9941 -2.09961 46.875 0.634766 52.4902 0.634766 Z M 53.3203 -4.49219 C 50.4395 -4.49219 49.3652 -5.56641 49.3652 -8.44727 L 49.3652 -50.4883 C 49.3652 -53.3691 50.4395 -54.4434 53.3203 -54.4434 L 62.2559 -54.4434 C 65.1367 -54.4434 66.2598 -53.3691 66.2598 -50.4883 L 66.2598 -8.44727 C 66.2598 -5.56641 65.1367 -4.49219 62.2559 -4.49219 Z M 18.2617 0.634766 L 28.8574 0.634766 C 34.4727 0.634766 37.4023 -2.09961 37.4023 -7.51953 L 37.4023 -40.332 C 37.4023 -45.752 34.4727 -48.4863 28.8574 -48.4863 L 18.2617 -48.4863 C 12.6465 -48.4863 9.76562 -45.752 9.76562 -40.332 L 9.76562 -7.51953 C 9.76562 -2.09961 12.6465 0.634766 18.2617 0.634766 Z M 19.1406 -4.49219 C 16.2109 -4.49219 15.1367 -5.56641 15.1367 -8.44727 L 15.1367 -39.4043 C 15.1367 -42.2852 16.2109 -43.3594 19.1406 -43.3594 L 28.0273 -43.3594 C 30.957 -43.3594 32.0312 -42.2852 32.0312 -39.4043 L 32.0312 -8.44727 C 32.0312 -5.56641 30.957 -4.49219 28.0273 -4.49219 Z"/>
  </g>
  <g id="Thin-S" transform="matrix(1 0 0 1 800.294 696)">
   <path d="M 84.1309 0.244141 L 95.459 0.244141 C 100.098 0.244141 102.49 -2.09961 102.49 -6.78711 L 102.49 -62.8418 C 102.49 -67.5293 100.098 -69.873 95.459 -69.873 L 84.1309 -69.873 C 79.4434 -69.873 77.0996 -67.5293 77.0996 -62.8418 L 77.0996 -6.78711 C 77.0996 -2.09961 79.4434 0.244141 84.1309 0.244141 Z M 84.4238 -2.92969 C 81.5918 -2.92969 80.3711 -4.24805 80.3711 -7.12891 L 80.3711 -62.5 C 80.3711 -65.3809 81.5918 -66.6992 84.4238 -66.6992 L 95.1172 -66.6992 C 97.9492 -66.6992 99.2188 -65.3809 99.2188 -62.5 L 99.2188 -7.12891 C 99.2188 -4.24805 97.9492 -2.92969 95.1172 -2.92969 Z M 50.4395 0.244141 L 61.8164 0.244141 C 66.4551 0.244141 68.8477 -2.09961 68.8477 -6.78711 L 68.8477 -51.8066 C 68.8477 -56.4941 66.4551 -58.8379 61.8164 -58.8379 L 50.4395 -58.8379 C 45.8008 -58.8379 43.4082 -56.4941 43.4082 -51.8066 L 43.4082 -6.78711 C 43.4082 -2.09961 45.8008 0.244141 50.4395 0.244141 Z M 50.7812 -2.92969 C 47.9492 -2.92969 46.6797 -4.24805 46.6797 -7.12891 L 46.6797 -51.416 C 46.6797 -54.2969 47.9492 -55.6152 50.7812 -55.6152 L 61.4746 -55.6152 C 64.3066 -55.6152 65.5762 -54.2969 65.5762 -51.416 L 65.5762 -7.12891 C 65.5762 -4.24805 64.3066 -2.92969 61.4746 -2.92969 Z M 16.7969 0.244141 L 28.125 0.244141 C 32.8125 0.244141 35.2051 -2.09961 35.2051 -6.78711 L 35.2051 -40.918 C 35.2051 -45.6543 32.8125 -47.9492 28.125 -47.9492 L 16.7969 -47.9492 C 12.1582 -47.9492 9.76562 -45.6543 9.76562 -40.918 L 9.76562 -6.78711 C 9.76562 -2.09961 12.1582 0.244141 16.7969 0.244141 Z M 17.1387 -2.92969 C 14.3066 -2.92969 13.0371 -4.24805 13.0371 -7.12891 L 13.0371 -40.5762 C 13.0371 -43.457 14.3066 -44.7754 17.1387 -44.7754 L 27.832 -44.7754 C 30.6641 -44.7754 31.9336 -43.457 31.9336 -40.5762 L 31.9336 -7.12891 C 31.9336 -4.24805 30.6641 -2.92969 27.832 -2.92969 Z"/>
  </g>
  <g id="Ultralight-S" transform="matrix(1 0 0 1 504.438 696)">
   <path d="M 82.7637 0.0488281 L 94.4824 0.0488281 C 98.6816 0.0488281 100.781 -2.05078 100.781 -6.39648 L 100.781 -62.9883 C 100.781 -67.334 98.6816 -69.4336 94.4824 -69.4336 L 82.7637 -69.4336 C 78.6133 -69.4336 76.5137 -67.334 76.5137 -62.9883 L 76.5137 -6.39648 C 76.5137 -2.05078 78.6133 0.0488281 82.7637 0.0488281 Z M 82.8613 -2.14844 C 80.0293 -2.14844 78.7109 -3.56445 78.7109 -6.44531 L 78.7109 -62.9395 C 78.7109 -65.8203 80.0293 -67.2363 82.8613 -67.2363 L 94.4336 -67.2363 C 97.2168 -67.2363 98.584 -65.8203 98.584 -62.9395 L 98.584 -6.44531 C 98.584 -3.56445 97.2168 -2.14844 94.4336 -2.14844 Z M 49.4141 0.0488281 L 61.1328 0.0488281 C 65.2832 0.0488281 67.4316 -2.05078 67.4316 -6.39648 L 67.4316 -52.002 C 67.4316 -56.3477 65.2832 -58.4473 61.1328 -58.4473 L 49.4141 -58.4473 C 45.2637 -58.4473 43.1152 -56.3477 43.1152 -52.002 L 43.1152 -6.39648 C 43.1152 -2.05078 45.2637 0.0488281 49.4141 0.0488281 Z M 49.4629 -2.14844 C 46.6797 -2.14844 45.3125 -3.56445 45.3125 -6.44531 L 45.3125 -51.9531 C 45.3125 -54.834 46.6797 -56.25 49.4629 -56.25 L 61.084 -56.25 C 63.8672 -56.25 65.2344 -54.834 65.2344 -51.9531 L 65.2344 -6.44531 C 65.2344 -3.56445 63.8672 -2.14844 61.084 -2.14844 Z M 16.0645 0.0488281 L 27.7832 0.0488281 C 31.9336 0.0488281 34.0332 -2.05078 34.0332 -6.39648 L 34.0332 -41.2598 C 34.0332 -45.5566 31.9336 -47.6562 27.7832 -47.6562 L 16.0645 -47.6562 C 11.8652 -47.6562 9.76562 -45.5566 9.76562 -41.2598 L 9.76562 -6.39648 C 9.76562 -2.05078 11.8652 0.0488281 16.0645 0.0488281 Z M 16.1133 -2.14844 C 13.3301 -2.14844 11.9629 -3.56445 11.9629 -6.44531 L 11.9629 -41.1621 C 11.9629 -44.043 13.3301 -45.5078 16.1133 -45.5078 L 27.7344 -45.5078 C 30.5176 -45.5078 31.8359 -44.043 31.8359 -41.1621 L 31.8359 -6.44531 C 31.8359 -3.56445 30.5176 -2.14844 27.7344 -2.14844 Z"/>
  </g>
 </g>
</svg>
